<?xml version="1.0" encoding="UTF-8" standalone="no"?>
<svg
   xmlns:dc="http://purl.org/dc/elements/1.1/"
   xmlns:cc="http://creativecommons.org/ns#"
   xmlns:rdf="http://www.w3.org/1999/02/22-rdf-syntax-ns#"
   xmlns:svg="http://www.w3.org/2000/svg"
   xmlns="http://www.w3.org/2000/svg"
   xmlns:sodipodi="http://sodipodi.sourceforge.net/DTD/sodipodi-0.dtd"
   xmlns:inkscape="http://www.inkscape.org/namespaces/inkscape"
   height="110px"
   style="enable-background:new 0 0 110 110;"
   version="1.0"
   viewBox="0 0 110 110"
   width="110px"
   xml:space="preserve"
   id="svg13"
   sodipodi:docname="logo.svg"
   inkscape:version="0.92.3 (2405546, 2018-03-11)"><metadata
     id="metadata19"><rdf:RDF><cc:Work
         rdf:about=""><dc:format>image/svg+xml</dc:format><dc:type
           rdf:resource="http://purl.org/dc/dcmitype/StillImage" /></cc:Work></rdf:RDF></metadata><defs
     id="defs17"><marker
       inkscape:stockid="Arrow1Lstart"
       orient="auto"
       refY="0.0"
       refX="0.0"
       id="marker1128"
       style="overflow:visible"
       inkscape:isstock="true"><path
         id="path1126"
         d="M 0.0,0.0 L 5.0,-5.0 L -12.5,0.0 L 5.0,5.0 L 0.0,0.0 z "
         style="fill-rule:evenodd;stroke:#000000;stroke-width:1.0pt"
         transform="scale(0.8) translate(12.5,0)" /></marker><marker
       inkscape:stockid="Arrow1Lstart"
       orient="auto"
       refY="0.0"
       refX="0.0"
       id="marker1106"
       style="overflow:visible"
       inkscape:isstock="true"><path
         id="path1104"
         d="M 0.0,0.0 L 5.0,-5.0 L -12.5,0.0 L 5.0,5.0 L 0.0,0.0 z "
         style="fill-rule:evenodd;stroke:#000000;stroke-width:1.0pt"
         transform="scale(0.8) translate(12.5,0)" /></marker><marker
       inkscape:stockid="Arrow1Lend"
       orient="auto"
       refY="0.0"
       refX="0.0"
       id="Arrow1Lend"
       style="overflow:visible;"
       inkscape:isstock="true"><path
         id="path829"
         d="M 0.0,0.0 L 5.0,-5.0 L -12.5,0.0 L 5.0,5.0 L 0.0,0.0 z "
         style="fill-rule:evenodd;stroke:#000000;stroke-width:1.0pt;"
         transform="scale(0.8) rotate(180) translate(12.5,0)" /></marker><marker
       inkscape:stockid="Arrow1Lstart"
       orient="auto"
       refY="0.0"
       refX="0.0"
       id="Arrow1Lstart"
       style="overflow:visible"
       inkscape:isstock="true"><path
         id="path826"
         d="M 0.0,0.0 L 5.0,-5.0 L -12.5,0.0 L 5.0,5.0 L 0.0,0.0 z "
         style="fill-rule:evenodd;stroke:#000000;stroke-width:1.0pt"
         transform="scale(0.8) translate(12.5,0)" /></marker></defs><sodipodi:namedview
     pagecolor="#ffffff"
     bordercolor="#666666"
     borderopacity="1"
     objecttolerance="10"
     gridtolerance="10"
     guidetolerance="10"
     inkscape:pageopacity="0"
     inkscape:pageshadow="2"
     inkscape:window-width="1366"
     inkscape:window-height="650"
     id="namedview15"
     showgrid="false"
     inkscape:zoom="2.1454545"
     inkscape:cx="64.640343"
     inkscape:cy="55.856345"
     inkscape:window-x="395"
     inkscape:window-y="1110"
     inkscape:window-maximized="1"
     inkscape:current-layer="svg13" /><g
     id="R-Multicolor"
     style="fill:#b23394;fill-opacity:1"><circle
       cx="55"
       cy="55"
       r="55"
       style="fill:#b23394;fill-opacity:1"
       id="circle2" /><g
       id="g10"
       style="fill:#b23394;fill-opacity:1"><path
         d="M75,23L49.792,48.208C47.668,47.44,45.388,47,43,47c-11.046,0-20,8.954-20,20s8.954,20,20,20    s20-8.954,20-20c0-2.388-0.44-4.668-1.208-6.792L63,59v-8h8v-8h8v-8h8V23H75z M47.595,76.204c-0.2,0.955-0.869,1.744-1.777,2.1    c-3.631,1.422-7.918,0.666-10.853-2.269c-2.935-2.934-3.691-7.223-2.268-10.855c0.356-0.909,1.146-1.577,2.102-1.776    c0.956-0.199,1.946,0.098,2.636,0.788l9.375,9.375C47.5,74.257,47.795,75.249,47.595,76.204z"
         style="fill:#b23394;fill-opacity:1"
         id="path4" /><path
         d="M87,23H75L49.792,48.208C47.668,47.44,45.388,47,43,47c-11.046,0-20,8.954-20,20    c0,5.701,2.397,10.832,6.224,14.475l5.602-5.602c-2.809-2.929-3.526-7.124-2.128-10.693c0.356-0.909,1.146-1.577,2.102-1.776    c0.956-0.199,1.946,0.098,2.636,0.788l4.536,4.536L87,23.698V23z"
         style="fill:#b23394;fill-opacity:1"
         id="path6" /><path
         d="M55,49c-0.552-0.552-0.552-1.448,0-2l22-22h4L57,49C56.448,49.552,55.552,49.552,55,49z"
         style="fill:#b23394;fill-opacity:1"
         id="path8" /></g></g><circle
     style="fill:#f9f9f9;fill-opacity:1;stroke-width:1.33945799"
     id="path1154"
     cx="47.461861"
     cy="80.419479"
     r="10.29661" /><circle
     style="fill:#f9f9f9;fill-opacity:1;stroke-width:1.33945799"
     id="path1154-3"
     cx="46.995762"
     cy="26.838985"
     r="10.29661" /><rect
     style="fill:#f9f9f9;fill-opacity:1;stroke-width:0.82019138"
     id="rect1171"
     width="55.050133"
     height="4.5875111"
     x="-16.476231"
     y="90.925514"
     transform="rotate(-36.389211)" /><rect
     style="fill:#f9f9f9;fill-opacity:1;stroke-width:0.82019138"
     id="rect1171-6"
     width="55.050133"
     height="4.5875111"
     x="44.875515"
     y="-7.738657"
     transform="rotate(36.062291)" /><rect
     style="fill:#f9f9f9;fill-opacity:1;stroke-width:0.86272156"
     id="rect1171-6-7"
     width="60.90004"
     height="4.5880561"
     x="23.095478"
     y="51.67688"
     transform="matrix(0.99999909,0.00134945,0.00936401,0.99995616,0,0)" /><circle
     style="fill:#f9f9f9;fill-opacity:1;stroke-width:1.33945799"
     id="path1154-3-5"
     cx="82.474579"
     cy="53.699154"
     r="10.29661" /><circle
     style="fill:#f9f9f9;fill-opacity:1;stroke-width:1.33945799"
     id="path1154-3-3"
     cx="28.203392"
     cy="53.601692"
     r="10.29661" /><circle
     style="fill:#910871;fill-opacity:1;stroke-width:0.78657252"
     id="path1154-5"
     cx="47.465977"
     cy="80.40062"
     r="6.0465002" /><circle
     style="fill:#910871;fill-opacity:1;stroke-width:0.78657252"
     id="path1154-5-6"
     cx="82.725502"
     cy="53.641193"
     r="6.0465002" /><circle
     style="fill:#910871;fill-opacity:1;stroke-width:0.78657252"
     id="path1154-5-2"
     cx="28.1642"
     cy="53.659954"
     r="6.0465002" /><circle
     style="fill:#910871;fill-opacity:1;stroke-width:0.78657252"
     id="path1154-5-9"
     cx="47.016949"
     cy="26.838982"
     r="6.0465002" /></svg>