<?xml version="1.0" encoding="UTF-8"?>
<svg width="18px" height="18px" viewBox="0 0 18 18" version="1.1" xmlns="http://www.w3.org/2000/svg" xmlns:xlink="http://www.w3.org/1999/xlink">
    <title>complication-level-up</title>
    <g id="icons" stroke="none" stroke-width="1" fill="none" fill-rule="evenodd">
        <g id="complication-level-up">
            <circle id="Oval" fill="#FFFFFF" cx="9" cy="9" r="9"></circle>
            <g id="Group-2" transform="translate(4.500000, 3.000000)" fill="#87C00D">
                <path d="M0.300413652,4.66620705 L4.35134117,0.165176477 C4.42523297,0.0830744726 4.55169094,0.0764187901 4.63379295,0.150310594 C4.63900544,0.155001837 4.64396759,0.159963985 4.64865883,0.165176477 L8.69958635,4.66620705 C8.77347815,4.74830906 8.76682247,4.87476703 8.68472047,4.94865883 C8.64799552,4.98171128 8.60033587,5 8.55092752,5 L6.7,5 C6.58954305,5 6.5,5.08954305 6.5,5.2 L6.5,8.8 C6.5,8.91045695 6.41045695,9 6.3,9 L2.7,9 C2.58954305,9 2.5,8.91045695 2.5,8.8 L2.5,5.2 C2.5,5.08954305 2.41045695,5 2.3,5 L0.449072481,5 C0.338615531,5 0.249072481,4.91045695 0.249072481,4.8 C0.249072481,4.75059164 0.267361204,4.702932 0.300413652,4.66620705 Z" id="Path-2"></path>
                <rect id="Rectangle" x="2.5" y="10" width="4" height="1" rx="0.5"></rect>
            </g>
        </g>
    </g>
</svg>