<?xml version="1.0" encoding="UTF-8"?>
<svg width="400px" height="400px" viewBox="0 0 400 400" version="1.1" xmlns="http://www.w3.org/2000/svg" xmlns:xlink="http://www.w3.org/1999/xlink">
    <!-- Generator: Sketch 55.2 (78181) - https://sketchapp.com -->
    <title>graph-loading-3</title>
    <desc>Created with Sketch.</desc>
    <g id="graph-loading-3" stroke="none" stroke-width="1" fill="none" fill-rule="evenodd">
        <g id="Group" transform="translate(53.000000, 52.617188)">
            <path d="M188.956159,6.45722464 C226.255083,17.5451941 257.354037,43.0373152 275.80381,76.4843775 L205.706498,115.06856 C197.297418,99.8239804 183.123065,88.2051225 166.122875,83.1514221 L188.956159,6.45722464 Z" id="Combined-Shape" fill="#ECF0F1"></path>
            <path d="M275.80381,76.4843775 C287.400728,97.5080957 294,121.674783 294,147.382812 C294,182.584764 281.626518,214.896734 260.991572,240.206704 L198.955342,189.690301 C208.360386,178.154464 214,163.427239 214,147.382812 C214,135.665547 210.992168,124.650799 205.706498,115.06856 L275.80381,76.4843775 Z" id="Combined-Shape-Copy" fill="#BDC3C7"></path>
            <path d="M191.640399,7.28338995 L167.346304,83.5279736 C160.929656,81.4851894 154.093565,80.3828125 147,80.3828125 C109.996922,80.3828125 80,110.379734 80,147.382813 C80,184.385891 109.996922,214.382813 147,214.382813 C167.958651,214.382813 186.669642,204.759432 198.955342,189.690301 L260.991572,240.206704 C234.036378,273.268829 192.983907,294.382813 147,294.382813 C65.8141418,294.382813 -1.13686838e-13,228.568671 -1.13686838e-13,147.382813 C-1.13686838e-13,66.1969543 65.8141418,0.3828125 147,0.3828125 C162.563494,0.3828125 177.562082,2.80146038 191.640399,7.28338995 Z" id="Combined-Shape-Copy-2" fill="#D5DBDC"></path>
        </g>
    </g>
</svg>