<?xml version="1.0" encoding="UTF-8"?>
<svg width="400px" height="201px" viewBox="0 0 400 201" version="1.1" xmlns="http://www.w3.org/2000/svg" xmlns:xlink="http://www.w3.org/1999/xlink">
    <!-- Generator: Sketch 55.2 (78181) - https://sketchapp.com -->
    <title>graph-loading-1</title>
    <desc>Created with Sketch.</desc>
    <g id="graph-loading-1" stroke="none" stroke-width="1" fill="none" fill-rule="evenodd" stroke-dasharray="2,2">
        <path d="M0,160 C11.2321042,160 20.0246941,40 40,40 C59.9753059,40 66.9049676,180 80,180 C93.0950324,180 98.4418416,80 120,80 C141.558158,80 140.546451,140 160,140 C179.453549,140 176.379308,20 200,20 C223.620692,20 226.196128,180 240,180 C253.803872,180 261.013768,60 280,60 C298.986232,60 303.450742,180 320,180 C336.549258,180 337.539508,40 360,40 C382.460492,40 384.40439,160 400,160" id="Path-2" stroke="#979797"></path>
    </g>
</svg>